<svg xmlns="http://www.w3.org/2000/svg" width="1371" height="765" viewBox="0 0 1371 765">
<g>
<path d="M 939.81 548.25 C939.62,548.94 926.36,562.49 910.34,578.37 L 881.21 607.25 L 879.56 604.74 C878.28,602.78 878.05,600.84 878.53,595.87 L 879.13 589.50 L 835.61 545.50 C807.48,517.06 791.48,500.15 790.36,497.67 C788.62,493.83 788.75,492.43 791.60,483.99 C791.92,483.02 787.65,477.81 779.72,469.50 C772.14,461.58 769.34,458.01 766.33,457.83 C764.17,457.70 761.90,459.31 757.70,462.31 C756.74,462.99 755.68,463.74 754.50,464.56 C719.26,489.04 668.62,499.03 626.18,489.89 C602.95,484.89 578.16,474.17 560.00,461.29 C547.79,452.62 526.36,431.19 517.72,419.00 C504.00,399.63 492.85,373.03 488.98,350.41 C482.43,312.09 487.59,277.36 505.00,242.50 C514.18,224.11 522.80,212.15 537.47,197.45 C561.78,173.11 592.38,156.79 626.53,149.97 C640.30,147.21 665.37,146.26 680.08,147.93 C754.65,156.40 813.78,211.13 830.06,286.74 C831.57,293.78 832.31,301.65 832.69,315.00 C833.15,330.92 832.93,335.23 831.11,345.91 C825.88,376.51 815.14,401.60 797.33,424.79 C792.33,431.30 791.17,433.44 791.92,434.79 C792.44,435.73 797.98,441.58 804.23,447.78 L 815.60 459.07 L 819.27 457.53 C823.76,455.65 828.68,455.58 832.00,457.33 C833.38,458.06 853.81,478.06 877.42,501.78 C901.03,525.49 921.62,545.43 923.18,546.08 C925.37,546.98 927.01,546.98 930.28,546.06 C934.98,544.75 940.42,546.00 939.81,548.25 ZM 645.00 459.32 C661.16,460.99 682.62,459.07 698.50,454.53 C710.71,451.04 731.56,440.52 742.50,432.32 C771.33,410.72 790.28,380.31 797.11,344.69 C798.98,334.91 799.18,331.30 798.68,316.00 C798.06,297.07 796.93,290.53 791.53,274.38 C784.98,254.81 774.76,238.19 759.83,222.84 C748.30,210.98 737.45,202.93 723.34,195.75 C702.04,184.91 684.51,180.68 660.50,180.60 C641.84,180.54 634.07,181.72 617.50,187.10 C594.77,194.49 575.94,206.14 559.81,222.80 C540.19,243.05 527.78,267.03 522.45,295.00 C520.02,307.74 519.96,331.99 522.33,344.68 C529.06,380.81 550.97,414.60 580.75,434.83 C589.47,440.75 604.68,448.66 613.65,451.93 C621.20,454.69 637.63,458.56 645.00,459.32 ZM 920.77 529.83 C920.13,530.47 919.35,531.00 919.04,531.00 C918.73,531.00 910.19,522.70 900.06,512.56 C884.83,497.32 881.86,493.88 882.85,492.68 C883.79,491.55 883.79,490.24 882.85,486.74 C881.34,481.10 882.93,476.62 887.42,473.89 C891.11,471.64 894.16,471.50 897.80,473.43 C900.72,474.98 935.68,509.92 938.36,513.97 C939.26,515.33 940.00,518.19 940.00,520.32 C940.00,523.40 939.30,524.90 936.60,527.60 C932.92,531.28 929.20,531.96 924.52,529.83 C922.55,528.93 921.67,528.93 920.77,529.83 ZM 859.00 606.07 C855.17,608.77 852.78,609.12 849.50,607.44 C845.70,605.50 808.38,568.48 806.34,564.63 C802.88,558.08 808.29,550.00 816.14,550.00 C818.34,550.00 821.08,550.51 822.24,551.13 C823.96,552.05 824.59,551.92 825.69,550.41 C826.94,548.71 828.24,549.76 842.59,564.03 C861.76,583.10 864.63,586.53 863.04,588.46 C862.19,589.47 862.15,590.88 862.88,593.52 C864.16,598.17 862.48,603.62 859.00,606.07 Z" fill="rgb(19,41,72)"/>
<path d="M 687.79 428.10 C683.82,430.13 676.17,430.54 672.15,428.93 C664.86,426.01 660.94,420.69 660.04,412.50 L 659.50 407.50 L 631.00 393.32 C603.60,379.68 598.86,377.80 597.49,380.01 C596.11,382.25 588.87,385.00 584.36,385.00 C573.23,385.00 565.00,376.81 565.00,365.75 C565.00,362.53 565.65,358.65 566.44,357.13 C568.00,354.09 575.41,347.00 577.00,347.00 C577.64,347.00 578.00,337.11 578.00,319.50 C578.00,304.38 577.62,292.00 577.15,292.00 C576.68,292.00 571.05,294.48 564.63,297.50 C558.22,300.52 552.34,303.00 551.56,303.00 C549.93,303.00 547.71,297.03 548.18,293.91 C548.44,292.19 557.64,287.32 596.82,268.14 C644.62,244.76 645.16,244.46 646.95,240.50 C649.03,235.87 653.29,231.59 657.32,230.06 C661.94,228.32 670.11,228.77 673.72,230.97 C677.02,232.98 683.00,240.38 683.00,242.45 C683.00,243.08 705.28,254.57 732.50,267.97 C759.72,281.37 782.00,292.73 782.00,293.21 C782.00,293.98 778.24,301.95 777.46,302.84 C777.29,303.02 771.43,300.43 764.44,297.09 C757.44,293.74 751.55,291.00 751.36,291.00 C751.16,291.00 751.00,294.11 751.00,297.90 L 751.00 304.80 L 754.75 306.74 C761.37,310.15 765.77,319.27 764.41,326.76 C762.34,338.21 752.99,344.53 741.00,342.62 L 737.10 341.99 L 727.80 354.33 C722.68,361.12 713.17,373.71 706.65,382.31 L 694.80 397.95 L 696.90 402.29 C701.65,412.11 697.83,422.95 687.79,428.10 ZM 600.93 354.42 C601.65,355.29 602.53,356.00 602.87,356.00 C603.22,356.00 611.60,353.79 621.50,351.08 C631.40,348.38 645.58,344.56 653.00,342.60 C660.42,340.64 672.35,337.49 679.50,335.59 C686.65,333.70 699.78,330.26 708.68,327.96 L 724.86 323.76 L 727.16 314.17 L 715.83 303.28 C709.60,297.30 701.80,289.96 698.50,286.98 C695.20,283.99 688.78,277.99 684.24,273.64 C676.14,265.89 675.91,265.76 672.24,266.54 C670.18,266.98 665.93,267.37 662.79,267.42 L 657.08 267.50 L 646.27 283.50 C640.33,292.30 630.34,307.15 624.08,316.50 C617.82,325.85 610.18,337.22 607.10,341.77 C604.02,346.31 601.08,350.66 600.56,351.43 C599.93,352.36 600.06,353.37 600.93,354.42 ZM 633.17 383.47 C649.30,391.39 662.66,397.90 662.85,397.94 C663.04,397.97 664.39,397.17 665.85,396.16 C670.09,393.22 672.05,392.66 679.98,392.06 L 687.46 391.50 L 708.22 364.00 C719.64,348.88 728.98,335.96 728.99,335.31 C729.00,334.65 728.63,333.89 728.18,333.61 C727.74,333.34 719.07,335.29 708.93,337.94 C678.36,345.96 641.26,355.84 628.00,359.50 C621.12,361.39 613.03,363.55 610.00,364.28 C599.80,366.77 600.75,367.56 633.17,383.47 ZM 590.00 315.93 C590.00,333.69 590.39,347.00 590.90,347.00 C592.20,347.00 648.27,263.03 648.79,260.29 C649.14,258.50 648.78,258.00 647.17,258.00 C646.04,258.00 632.71,264.04 617.56,271.43 L 590.00 284.85 ZM 902.36 618.62 C898.08,620.41 897.10,620.36 893.50,618.16 C891.38,616.86 889.76,616.11 889.31,614.92 C888.28,612.20 893.29,607.19 912.26,588.24 C913.77,586.73 915.37,585.13 917.07,583.43 C933.25,567.25 946.81,554.00 947.20,554.00 C948.49,554.00 953.00,562.62 953.00,565.09 C952.99,566.41 952.06,569.08 950.92,571.00 C947.87,576.16 906.20,617.02 902.36,618.62 ZM 723.61 297.24 C729.16,302.61 734.14,307.00 734.66,307.00 C735.19,307.00 736.40,306.43 737.35,305.73 C738.83,304.65 739.04,303.01 738.79,294.48 L 738.50 284.50 L 711.64 271.20 C696.86,263.89 684.32,258.06 683.77,258.24 C682.82,258.56 685.18,260.93 704.98,279.49 C709.67,283.88 718.05,291.87 723.61,297.24 ZM 920.77 529.83 C921.60,529.00 922.41,528.94 924.06,529.63 C922.07,528.80 921.35,529.23 917.97,532.53 C915.79,534.66 914.00,536.75 914.00,537.17 C914.00,537.41 914.14,537.75 914.38,538.16 C905.90,530.09 892.26,516.68 877.42,501.78 C876.96,501.31 876.50,500.85 876.04,500.39 L 880.04 496.05 C882.14,493.76 883.23,492.22 883.54,490.99 C883.48,491.69 883.25,492.20 882.85,492.68 C881.86,493.88 884.83,497.32 900.06,512.56 C910.19,522.70 918.73,531.00 919.04,531.00 C919.35,531.00 920.13,530.47 920.77,529.83 ZM 871.99 582.28 L 869.72 580.55 L 865.82 584.95 C862.43,588.77 862.02,589.76 862.66,592.42 C862.76,592.85 862.85,593.27 862.92,593.68 C862.91,593.63 862.89,593.58 862.88,593.52 C862.15,590.88 862.19,589.47 863.04,588.46 C864.63,586.53 861.76,583.10 842.59,564.03 C830.79,552.29 827.81,549.50 826.43,549.82 C826.83,549.47 827.27,549.05 827.77,548.56 C829.79,546.60 831.79,545.00 832.22,545.00 C833.97,545.00 832.75,542.90 826.31,536.07 C829.24,539.05 832.34,542.20 835.61,545.50 ZM 815.29 524.80 C814.43,523.93 813.52,523.02 812.58,522.08 C799.77,509.28 791.50,500.22 790.39,497.76 C790.14,497.19 789.92,496.67 789.74,496.18 C789.91,496.65 790.12,497.14 790.36,497.67 C791.17,499.47 799.83,508.88 815.29,524.80 ZM 861.57 485.93 C846.94,471.39 835.57,460.34 832.66,457.84 C836.06,460.59 845.15,469.30 854.94,479.21 ZM 878.80 592.93 C878.84,591.11 878.65,589.71 878.10,588.46 L 879.13 589.50 ZM 855.09 608.16 C853.94,608.65 853.33,608.88 852.73,608.85 C851.98,608.81 851.26,608.35 849.50,607.45 C847.85,606.60 839.88,599.14 831.23,590.66 C839.88,599.14 847.85,606.60 849.50,607.44 C851.52,608.47 853.20,608.74 855.09,608.16 ZM 859.00 606.07 C861.17,604.54 862.64,601.85 863.13,598.91 C862.63,602.79 860.52,605.72 856.92,607.38 C857.57,607.03 858.26,606.60 859.00,606.07 ZM 825.62 550.50 C824.56,551.92 823.92,552.03 822.24,551.13 C821.08,550.51 818.34,550.00 816.14,550.00 C818.34,550.00 821.03,550.48 822.12,551.06 C823.31,551.70 824.12,551.67 825.62,550.50 ZM 883.38 478.09 C884.27,476.15 885.80,474.64 887.97,473.52 C888.59,473.19 889.19,472.92 889.77,472.71 C889.01,473.00 888.23,473.39 887.42,473.89 C885.58,475.01 884.23,476.42 883.38,478.09 ZM 832.00 457.33 C828.67,455.58 823.76,455.65 819.27,457.53 C823.47,455.78 827.75,455.57 831.40,456.96 C831.53,457.01 831.73,457.14 832.00,457.33 ZM 883.41 489.14 C883.14,488.19 882.93,487.28 882.77,486.41 C882.80,486.52 882.82,486.63 882.85,486.74 C883.11,487.69 883.29,488.47 883.41,489.14 ZM 878.31 599.09 C878.23,601.80 878.60,603.25 879.54,604.71 C878.54,603.18 878.18,601.77 878.31,599.09 ZM 923.16 546.06 C924.31,546.53 925.28,546.76 926.38,546.75 C925.26,546.76 924.29,546.54 923.18,546.08 C923.17,546.07 923.17,546.07 923.16,546.06 Z" fill="rgb(192,158,67)"/>
<path d="M 0.00 382.50 L 0.00 0.00 L 685.50 0.00 L 1371.00 0.00 L 1371.00 382.50 L 1371.00 765.00 L 685.50 765.00 L 0.00 765.00 L 0.00 382.50 ZM 902.36 618.62 C906.20,617.02 947.87,576.16 950.92,571.00 C952.06,569.08 952.99,566.41 953.00,565.09 C953.00,562.62 948.49,554.00 947.20,554.00 C946.81,554.00 933.25,567.25 917.07,583.43 C884.80,615.71 886.18,613.68 893.50,618.16 C897.10,620.36 898.08,620.41 902.36,618.62 ZM 856.45 607.58 C862.20,605.18 864.42,599.76 862.66,592.42 C862.02,589.76 862.43,588.77 865.82,584.95 L 869.72 580.55 L 873.35 583.32 C878.51,587.26 879.34,589.30 878.55,596.23 C878.02,600.91 878.23,602.71 879.54,604.71 L 881.21 607.25 L 910.34 578.37 C926.36,562.49 939.62,548.94 939.81,548.25 C940.42,546.00 934.98,544.75 930.28,546.06 C926.94,547.00 925.38,546.98 923.01,546.00 C920.14,544.82 914.00,538.79 914.00,537.17 C914.00,536.75 915.79,534.66 917.97,532.53 C921.59,528.99 922.17,528.75 924.52,529.83 C929.20,531.96 932.92,531.28 936.60,527.60 C939.30,524.90 940.00,523.40 940.00,520.32 C940.00,518.19 939.26,515.33 938.36,513.97 C935.68,509.92 900.72,474.98 897.80,473.43 C894.34,471.60 891.63,471.62 887.97,473.52 C882.59,476.30 881.15,481.49 883.53,489.55 C883.97,491.06 883.04,492.79 880.04,496.05 L 875.94 500.50 L 854.94 479.21 C843.38,467.50 832.79,457.49 831.40,456.96 C827.75,455.57 823.47,455.78 819.27,457.53 L 815.60 459.07 L 804.23 447.78 C797.98,441.58 792.44,435.73 791.92,434.79 C791.17,433.44 792.33,431.30 797.33,424.79 C815.14,401.60 825.88,376.51 831.11,345.91 C832.93,335.23 833.15,330.92 832.69,315.00 C832.31,301.65 831.57,293.78 830.06,286.74 C813.78,211.13 754.65,156.40 680.08,147.93 C665.37,146.26 640.30,147.21 626.53,149.97 C592.38,156.79 561.78,173.11 537.47,197.45 C522.80,212.15 514.18,224.11 505.00,242.50 C487.59,277.36 482.43,312.09 488.98,350.41 C492.85,373.03 504.00,399.63 517.72,419.00 C526.36,431.19 547.79,452.62 560.00,461.29 C578.16,474.17 602.95,484.89 626.18,489.89 C668.62,499.03 719.26,489.04 754.50,464.56 C768.10,455.11 765.48,454.60 779.72,469.50 C787.65,477.81 791.92,483.02 791.60,483.99 C788.74,492.46 788.62,493.82 790.39,497.76 C791.50,500.22 799.77,509.28 812.58,522.08 C830.81,540.29 834.84,545.00 832.22,545.00 C831.79,545.00 829.79,546.60 827.77,548.56 C824.70,551.55 823.78,551.95 822.12,551.06 C821.03,550.48 818.34,550.00 816.14,550.00 C808.29,550.00 802.88,558.08 806.34,564.63 C808.38,568.47 845.69,605.49 849.50,607.45 C853.12,609.31 852.37,609.29 856.45,607.58 ZM 645.00 459.32 C637.63,458.56 621.20,454.69 613.65,451.93 C604.68,448.66 589.47,440.75 580.75,434.83 C550.97,414.60 529.06,380.81 522.33,344.68 C519.96,331.99 520.02,307.74 522.45,295.00 C527.78,267.03 540.19,243.05 559.81,222.80 C575.94,206.14 594.77,194.49 617.50,187.10 C634.07,181.72 641.84,180.54 660.50,180.60 C684.51,180.68 702.04,184.91 723.34,195.75 C737.45,202.93 748.30,210.98 759.83,222.84 C774.76,238.19 784.98,254.81 791.53,274.38 C796.93,290.53 798.06,297.07 798.68,316.00 C799.18,331.30 798.98,334.91 797.11,344.69 C790.28,380.31 771.33,410.72 742.50,432.32 C731.56,440.52 710.71,451.04 698.50,454.53 C682.62,459.07 661.16,460.99 645.00,459.32 ZM 687.79 428.10 C697.83,422.95 701.65,412.11 696.90,402.29 L 694.80 397.95 L 706.65 382.31 C713.17,373.71 722.68,361.12 727.80,354.33 L 737.10 341.99 L 741.00 342.62 C752.99,344.53 762.34,338.21 764.41,326.76 C765.77,319.27 761.37,310.15 754.75,306.74 L 751.00 304.80 L 751.00 297.90 C751.00,294.11 751.16,291.00 751.36,291.00 C751.55,291.00 757.44,293.74 764.44,297.09 C771.43,300.43 777.29,303.02 777.46,302.84 C778.24,301.95 782.00,293.98 782.00,293.21 C782.00,292.73 759.72,281.37 732.50,267.97 C705.28,254.57 683.00,243.08 683.00,242.45 C683.00,240.38 677.02,232.98 673.72,230.97 C670.11,228.77 661.94,228.32 657.32,230.06 C653.29,231.59 649.03,235.87 646.95,240.50 C645.16,244.46 644.62,244.76 596.82,268.14 C557.64,287.32 548.44,292.19 548.18,293.91 C547.71,297.03 549.93,303.00 551.56,303.00 C552.34,303.00 558.22,300.52 564.63,297.50 C571.05,294.48 576.68,292.00 577.15,292.00 C577.62,292.00 578.00,304.38 578.00,319.50 C578.00,337.11 577.64,347.00 577.00,347.00 C575.41,347.00 568.00,354.09 566.44,357.13 C565.65,358.65 565.00,362.53 565.00,365.75 C565.00,376.81 573.23,385.00 584.36,385.00 C588.87,385.00 596.11,382.25 597.49,380.01 C598.86,377.80 603.60,379.68 631.00,393.32 L 659.50 407.50 L 660.04 412.50 C660.94,420.69 664.86,426.01 672.15,428.93 C676.17,430.54 683.82,430.13 687.79,428.10 ZM 633.17 383.47 C600.75,367.56 599.80,366.77 610.00,364.28 C613.03,363.55 621.12,361.39 628.00,359.50 C641.26,355.84 678.36,345.96 708.93,337.94 C719.07,335.29 727.74,333.34 728.18,333.61 C728.63,333.89 729.00,334.65 728.99,335.31 C728.98,335.96 719.64,348.88 708.22,364.00 L 687.46 391.50 L 679.98 392.06 C672.05,392.66 670.09,393.22 665.85,396.16 C664.39,397.17 663.04,397.97 662.85,397.94 C662.66,397.90 649.30,391.39 633.17,383.47 ZM 600.93 354.42 C600.06,353.37 599.93,352.36 600.56,351.43 C601.08,350.66 604.02,346.31 607.10,341.77 C610.18,337.22 617.82,325.85 624.08,316.50 C630.34,307.15 640.33,292.30 646.27,283.50 L 657.08 267.50 L 662.79 267.42 C665.93,267.37 670.18,266.98 672.24,266.54 C675.91,265.76 676.14,265.89 684.24,273.64 C688.78,277.99 695.20,283.99 698.50,286.98 C701.80,289.96 709.60,297.30 715.83,303.28 L 727.16 314.17 L 726.01 318.97 L 724.86 323.76 L 708.68 327.96 C699.78,330.26 686.65,333.70 679.50,335.59 C672.35,337.49 660.42,340.64 653.00,342.60 C645.58,344.56 631.40,348.38 621.50,351.08 C611.60,353.79 603.22,356.00 602.87,356.00 C602.53,356.00 601.65,355.29 600.93,354.42 ZM 590.00 315.93 L 590.00 284.85 L 617.56 271.43 C632.71,264.04 646.04,258.00 647.17,258.00 C648.78,258.00 649.14,258.50 648.79,260.29 C648.27,263.03 592.20,347.00 590.90,347.00 C590.39,347.00 590.00,333.69 590.00,315.93 ZM 723.61 297.24 C718.05,291.87 709.67,283.88 704.98,279.49 C685.18,260.93 682.82,258.56 683.77,258.24 C684.32,258.06 696.86,263.89 711.64,271.20 L 738.50 284.50 L 738.79 294.48 C739.04,303.01 738.83,304.65 737.35,305.73 C736.40,306.43 735.19,307.00 734.66,307.00 C734.14,307.00 729.16,302.61 723.61,297.24 Z" fill="rgb(254,254,254)"/>
</g>
</svg>