<svg xmlns="http://www.w3.org/2000/svg" viewBox="480 140 480 490">
<g transform="scale(-1,1) translate(-1440,0)">
<path d="M 939.81 548.25 C939.62,548.94 926.36,562.49 910.34,578.37 L 881.21 607.25 L 879.56 604.74 C878.28,602.78 878.05,600.84 878.53,595.87 L 879.13 589.50 L 835.61 545.50 C807.48,517.06 791.48,500.15 790.36,497.67 C788.62,493.83 788.75,492.43 791.60,483.99 C791.92,483.02 787.65,477.81 779.72,469.50 C772.14,461.58 769.34,458.01 766.33,457.83 C764.17,457.70 761.90,459.31 757.70,462.31 C756.74,462.99 755.68,463.74 754.50,464.56 C719.26,489.04 668.62,499.03 626.18,489.89 C602.95,484.89 578.16,474.17 560.00,461.29 C547.79,452.62 526.36,431.19 517.72,419.00 C504.00,399.63 492.85,373.03 488.98,350.41 C482.43,312.09 487.59,277.36 505.00,242.50 C514.18,224.11 522.80,212.15 537.47,197.45 C561.78,173.11 592.38,156.79 626.53,149.97 C640.30,147.21 665.37,146.26 680.08,147.93 C754.65,156.40 813.78,211.13 830.06,286.74 C831.57,293.78 832.31,301.65 832.69,315.00 C833.15,330.92 832.93,335.23 831.11,345.91 C825.88,376.51 815.14,401.60 797.33,424.79 C792.33,431.30 791.17,433.44 791.92,434.79 C792.44,435.73 797.98,441.58 804.23,447.78 L 815.60 459.07 L 819.27 457.53 C823.76,455.65 828.68,455.58 832.00,457.33 C833.38,458.06 853.81,478.06 877.42,501.78 C901.03,525.49 921.62,545.43 923.18,546.08 C925.37,546.98 927.01,546.98 930.28,546.06 C934.98,544.75 940.42,546.00 939.81,548.25 ZM 645.00 459.32 C661.16,460.99 682.62,459.07 698.50,454.53 C710.71,451.04 731.56,440.52 742.50,432.32 C771.33,410.72 790.28,380.31 797.11,344.69 C798.98,334.91 799.18,331.30 798.68,316.00 C798.06,297.07 796.93,290.53 791.53,274.38 C784.98,254.81 774.76,238.19 759.83,222.84 C748.30,210.98 737.45,202.93 723.34,195.75 C702.04,184.91 684.51,180.68 660.50,180.60 C641.84,180.54 634.07,181.72 617.50,187.10 C594.77,194.49 575.94,206.14 559.81,222.80 C540.19,243.05 527.78,267.03 522.45,295.00 C520.02,307.74 519.96,331.99 522.33,344.68 C529.06,380.81 550.97,414.60 580.75,434.83 C589.47,440.75 604.68,448.66 613.65,451.93 C621.20,454.69 637.63,458.56 645.00,459.32 ZM 920.77 529.83 C920.13,530.47 919.35,531.00 919.04,531.00 C918.73,531.00 910.19,522.70 900.06,512.56 C884.83,497.32 881.86,493.88 882.85,492.68 C883.79,491.55 883.79,490.24 882.85,486.74 C881.34,481.10 882.93,476.62 887.42,473.89 C891.11,471.64 894.16,471.50 897.80,473.43 C900.72,474.98 935.68,509.92 938.36,513.97 C939.26,515.33 940.00,518.19 940.00,520.32 C940.00,523.40 939.30,524.90 936.60,527.60 C932.92,531.28 929.20,531.96 924.52,529.83 C922.55,528.93 921.67,528.93 920.77,529.83 ZM 859.00 606.07 C855.17,608.77 852.78,609.12 849.50,607.44 C845.70,605.50 808.38,568.48 806.34,564.63 C802.88,558.08 808.29,550.00 816.14,550.00 C818.34,550.00 821.08,550.51 822.24,551.13 C823.96,552.05 824.59,551.92 825.69,550.41 C826.94,548.71 828.24,549.76 842.59,564.03 C861.76,583.10 864.63,586.53 863.04,588.46 C862.19,589.47 862.15,590.88 862.88,593.52 C864.16,598.17 862.48,603.62 859.00,606.07 Z" fill="rgb(19,41,72)"/>
<path d="M 687.79 428.10 C683.82,430.13 676.17,430.54 672.15,428.93 C664.86,426.01 660.94,420.69 660.04,412.50 L 659.50 407.50 L 631.00 393.32 C603.60,379.68 598.86,377.80 597.49,380.01 C596.11,382.25 588.87,385.00 584.36,385.00 C573.23,385.00 565.00,376.81 565.00,365.75 C565.00,362.53 565.65,358.65 566.44,357.13 C568.00,354.09 575.41,347.00 577.00,347.00 C577.64,347.00 578.00,337.11 578.00,319.50 C578.00,304.38 577.62,292.00 577.15,292.00 C576.68,292.00 571.05,294.48 564.63,297.50 C558.22,300.52 552.34,303.00 551.56,303.00 C549.93,303.00 547.71,297.03 548.18,293.91 C548.44,292.19 557.64,287.32 596.82,268.14 C644.62,244.76 645.16,244.46 646.95,240.50 C649.03,235.87 653.29,231.59 657.32,230.06 C661.94,228.32 670.11,228.77 673.72,230.97 C677.02,232.98 683.00,240.38 683.00,242.45 C683.00,243.08 705.28,254.57 732.50,267.97 C759.72,281.37 782.00,292.73 782.00,293.21 C782.00,293.98 778.24,301.95 777.46,302.84 C777.29,303.02 771.43,300.43 764.44,297.09 C757.44,293.74 751.55,291.00 751.36,291.00 C751.16,291.00 751.00,294.11 751.00,297.90 L 751.00 304.80 L 754.75 306.74 C761.37,310.15 765.77,319.27 764.41,326.76 C762.34,338.21 752.99,344.53 741.00,342.62 L 737.10 341.99 L 727.80 354.33 C722.68,361.12 713.17,373.71 706.65,382.31 L 694.80 397.95 L 696.90 402.29 C701.65,412.11 697.83,422.95 687.79,428.10 ZM 600.93 354.42 C601.65,355.29 602.53,356.00 602.87,356.00 C603.22,356.00 611.60,353.79 621.50,351.08 C631.40,348.38 645.58,344.56 653.00,342.60 C660.42,340.64 672.35,337.49 679.50,335.59 C686.65,333.70 699.78,330.26 708.68,327.96 L 724.86 323.76 L 727.16 314.17 L 715.83 303.28 C709.60,297.30 701.80,289.96 698.50,286.98 C695.20,283.99 688.78,277.99 684.24,273.64 C676.14,265.89 675.91,265.76 672.24,266.54 C670.18,266.98 665.93,267.37 662.79,267.42 L 657.08 267.50 L 646.27 283.50 C640.33,292.30 630.34,307.15 624.08,316.50 C617.82,325.85 610.18,337.22 607.10,341.77 C604.02,346.31 601.08,350.66 600.56,351.43 C599.93,352.36 600.06,353.37 600.93,354.42 ZM 633.17 383.47 C649.30,391.39 662.66,397.90 662.85,397.94 C663.04,397.97 664.39,397.17 665.85,396.16 C670.09,393.22 672.05,392.66 679.98,392.06 L 687.46 391.50 L 708.22 364.00 C719.64,348.88 728.98,335.96 728.99,335.31 C729.00,334.65 728.63,333.89 728.18,333.61 C727.74,333.34 719.07,335.29 708.93,337.94 C678.36,345.96 641.26,355.84 628.00,359.50 C621.12,361.39 613.03,363.55 610.00,364.28 C599.80,366.77 600.75,367.56 633.17,383.47 ZM 590.00 315.93 C590.00,333.69 590.39,347.00 590.90,347.00 C592.20,347.00 648.27,263.03 648.79,260.29 C649.14,258.50 648.78,258.00 647.17,258.00 C646.04,258.00 632.71,264.04 617.56,271.43 L 590.00 284.85 ZM 902.36 618.62 C898.08,620.41 897.10,620.36 893.50,618.16 C891.38,616.86 889.76,616.11 889.31,614.92 C888.28,612.20 893.29,607.19 912.26,588.24 C913.77,586.73 915.37,585.13 917.07,583.43 C933.25,567.25 946.81,554.00 947.20,554.00 C948.49,554.00 953.00,562.62 953.00,565.09 C952.99,566.41 952.06,569.08 950.92,571.00 C947.87,576.16 906.20,617.02 902.36,618.62 ZM 723.61 297.24 C729.16,302.61 734.14,307.00 734.66,307.00 C735.19,307.00 736.40,306.43 737.35,305.73 C738.83,304.65 739.04,303.01 738.79,294.48 L 738.50 284.50 L 711.64 271.20 C696.86,263.89 684.32,258.06 683.77,258.24 C682.82,258.56 685.18,260.93 704.98,279.49 C709.67,283.88 718.05,291.87 723.61,297.24 Z" fill="rgb(192,158,67)"/>
</g>
</svg>
